%TF.GenerationSoftware,KiCad,Pcbnew,7.0.8*%
%TF.CreationDate,2023-11-13T16:42:22+01:00*%
%TF.ProjectId,ORBIT,4f524249-542e-46b6-9963-61645f706362,rev?*%
%TF.SameCoordinates,Original*%
%TF.FileFunction,Other,Comment*%
%FSLAX46Y46*%
G04 Gerber Fmt 4.6, Leading zero omitted, Abs format (unit mm)*
G04 Created by KiCad (PCBNEW 7.0.8) date 2023-11-13 16:42:22*
%MOMM*%
%LPD*%
G01*
G04 APERTURE LIST*
%ADD10C,0.150000*%
%ADD11C,0.370000*%
%ADD12C,0.254000*%
G04 APERTURE END LIST*
D10*
X146904761Y-74788152D02*
X146904761Y-75597676D01*
X146904761Y-75597676D02*
X146857142Y-75692914D01*
X146857142Y-75692914D02*
X146809523Y-75740533D01*
X146809523Y-75740533D02*
X146714285Y-75788152D01*
X146714285Y-75788152D02*
X146571428Y-75788152D01*
X146571428Y-75788152D02*
X146476190Y-75740533D01*
X146904761Y-75407200D02*
X146809523Y-75454819D01*
X146809523Y-75454819D02*
X146619047Y-75454819D01*
X146619047Y-75454819D02*
X146523809Y-75407200D01*
X146523809Y-75407200D02*
X146476190Y-75359580D01*
X146476190Y-75359580D02*
X146428571Y-75264342D01*
X146428571Y-75264342D02*
X146428571Y-74978628D01*
X146428571Y-74978628D02*
X146476190Y-74883390D01*
X146476190Y-74883390D02*
X146523809Y-74835771D01*
X146523809Y-74835771D02*
X146619047Y-74788152D01*
X146619047Y-74788152D02*
X146809523Y-74788152D01*
X146809523Y-74788152D02*
X146904761Y-74835771D01*
X147809523Y-74788152D02*
X147809523Y-75597676D01*
X147809523Y-75597676D02*
X147761904Y-75692914D01*
X147761904Y-75692914D02*
X147714285Y-75740533D01*
X147714285Y-75740533D02*
X147619047Y-75788152D01*
X147619047Y-75788152D02*
X147476190Y-75788152D01*
X147476190Y-75788152D02*
X147380952Y-75740533D01*
X147809523Y-75407200D02*
X147714285Y-75454819D01*
X147714285Y-75454819D02*
X147523809Y-75454819D01*
X147523809Y-75454819D02*
X147428571Y-75407200D01*
X147428571Y-75407200D02*
X147380952Y-75359580D01*
X147380952Y-75359580D02*
X147333333Y-75264342D01*
X147333333Y-75264342D02*
X147333333Y-74978628D01*
X147333333Y-74978628D02*
X147380952Y-74883390D01*
X147380952Y-74883390D02*
X147428571Y-74835771D01*
X147428571Y-74835771D02*
X147523809Y-74788152D01*
X147523809Y-74788152D02*
X147714285Y-74788152D01*
X147714285Y-74788152D02*
X147809523Y-74835771D01*
X148666666Y-75407200D02*
X148571428Y-75454819D01*
X148571428Y-75454819D02*
X148380952Y-75454819D01*
X148380952Y-75454819D02*
X148285714Y-75407200D01*
X148285714Y-75407200D02*
X148238095Y-75311961D01*
X148238095Y-75311961D02*
X148238095Y-74931009D01*
X148238095Y-74931009D02*
X148285714Y-74835771D01*
X148285714Y-74835771D02*
X148380952Y-74788152D01*
X148380952Y-74788152D02*
X148571428Y-74788152D01*
X148571428Y-74788152D02*
X148666666Y-74835771D01*
X148666666Y-74835771D02*
X148714285Y-74931009D01*
X148714285Y-74931009D02*
X148714285Y-75026247D01*
X148714285Y-75026247D02*
X148238095Y-75121485D01*
X149095238Y-74550057D02*
X149142857Y-74502438D01*
X149142857Y-74502438D02*
X149238095Y-74454819D01*
X149238095Y-74454819D02*
X149476190Y-74454819D01*
X149476190Y-74454819D02*
X149571428Y-74502438D01*
X149571428Y-74502438D02*
X149619047Y-74550057D01*
X149619047Y-74550057D02*
X149666666Y-74645295D01*
X149666666Y-74645295D02*
X149666666Y-74740533D01*
X149666666Y-74740533D02*
X149619047Y-74883390D01*
X149619047Y-74883390D02*
X149047619Y-75454819D01*
X149047619Y-75454819D02*
X149666666Y-75454819D01*
X150000000Y-74454819D02*
X150666666Y-74454819D01*
X150666666Y-74454819D02*
X150238095Y-75454819D01*
X150952381Y-74454819D02*
X151619047Y-74454819D01*
X151619047Y-74454819D02*
X151190476Y-75454819D01*
%TO.C,H4*%
X172500000Y-116000000D02*
G75*
G03*
X172500000Y-116000000I-2500000J0D01*
G01*
%TO.C,H3*%
X130500000Y-74000000D02*
G75*
G03*
X130500000Y-74000000I-2500000J0D01*
G01*
D11*
%TO.C,USB1*%
X151385000Y-74900000D02*
G75*
G03*
X151385000Y-74900000I-185000J0D01*
G01*
D12*
X150778000Y-78429000D02*
G75*
G03*
X150778000Y-78429000I-127000J0D01*
G01*
D11*
X146985000Y-74900000D02*
G75*
G03*
X146985000Y-74900000I-185000J0D01*
G01*
D10*
%TO.C,H2*%
X130200000Y-116000000D02*
G75*
G03*
X130200000Y-116000000I-2200000J0D01*
G01*
%TO.C,H1*%
X172500000Y-74000000D02*
G75*
G03*
X172500000Y-74000000I-2500000J0D01*
G01*
%TD*%
M02*
