%TF.GenerationSoftware,KiCad,Pcbnew,7.0.8*%
%TF.CreationDate,2023-11-13T16:42:22+01:00*%
%TF.ProjectId,ORBIT,4f524249-542e-46b6-9963-61645f706362,rev?*%
%TF.SameCoordinates,Original*%
%TF.FileFunction,Copper,L2,Bot*%
%TF.FilePolarity,Positive*%
%FSLAX46Y46*%
G04 Gerber Fmt 4.6, Leading zero omitted, Abs format (unit mm)*
G04 Created by KiCad (PCBNEW 7.0.8) date 2023-11-13 16:42:22*
%MOMM*%
%LPD*%
G01*
G04 APERTURE LIST*
%TA.AperFunction,ComponentPad*%
%ADD10C,1.400000*%
%TD*%
%TA.AperFunction,ComponentPad*%
%ADD11C,0.800000*%
%TD*%
%TA.AperFunction,ComponentPad*%
%ADD12C,5.000000*%
%TD*%
%TA.AperFunction,ComponentPad*%
%ADD13C,0.700000*%
%TD*%
%TA.AperFunction,ComponentPad*%
%ADD14C,4.400000*%
%TD*%
%TA.AperFunction,ComponentPad*%
%ADD15R,1.700000X1.700000*%
%TD*%
%TA.AperFunction,ComponentPad*%
%ADD16O,1.700000X1.700000*%
%TD*%
%TA.AperFunction,ViaPad*%
%ADD17C,0.800000*%
%TD*%
G04 APERTURE END LIST*
D10*
%TO.P,PWR,4*%
%TO.N,unconnected-(PWR1-Pad4)*%
X172750000Y-79350000D03*
%TO.P,PWR,5*%
%TO.N,unconnected-(PWR1-Pad5)*%
X172750000Y-85650000D03*
%TD*%
D11*
%TO.P,H4,*%
%TO.N,*%
X168125000Y-116000000D03*
X168674175Y-114674175D03*
X168674175Y-117325825D03*
X170000000Y-114125000D03*
D12*
X170000000Y-116000000D03*
D11*
X170000000Y-117875000D03*
X171325825Y-114674175D03*
X171325825Y-117325825D03*
X171875000Y-116000000D03*
%TD*%
%TO.P,H3,*%
%TO.N,*%
X126125000Y-74000000D03*
X126674175Y-72674175D03*
X126674175Y-75325825D03*
X128000000Y-72125000D03*
D12*
X128000000Y-74000000D03*
D11*
X128000000Y-75875000D03*
X129325825Y-72674175D03*
X129325825Y-75325825D03*
X129875000Y-74000000D03*
%TD*%
D13*
%TO.P,H2,*%
%TO.N,*%
X126350000Y-116000000D03*
X126833274Y-114833274D03*
X126833274Y-117166726D03*
X128000000Y-114350000D03*
D14*
X128000000Y-116000000D03*
D13*
X128000000Y-117650000D03*
X129166726Y-114833274D03*
X129166726Y-117166726D03*
X129650000Y-116000000D03*
%TD*%
D15*
%TO.P,J1,1,Pin_1*%
%TO.N,GND*%
X126400000Y-92320000D03*
D16*
%TO.P,J1,2,Pin_2*%
%TO.N,SWDCLK*%
X126400000Y-94860000D03*
%TO.P,J1,3,Pin_3*%
%TO.N,NRST*%
X126400000Y-97400000D03*
%TO.P,J1,4,Pin_4*%
%TO.N,PA2*%
X126400000Y-99940000D03*
%TO.P,J1,5,Pin_5*%
%TO.N,SWDIO*%
X126400000Y-102480000D03*
%TO.P,J1,6,Pin_6*%
%TO.N,PA3*%
X126400000Y-105020000D03*
%TO.P,J1,7,Pin_7*%
%TO.N,PA4*%
X126400000Y-107560000D03*
%TO.P,J1,8,Pin_8*%
%TO.N,+3.3V*%
X126400000Y-110100000D03*
%TD*%
D15*
%TO.P,J2,1,Pin_1*%
%TO.N,GND*%
X171750000Y-92320000D03*
D16*
%TO.P,J2,2,Pin_2*%
%TO.N,PA15*%
X171750000Y-94860000D03*
%TO.P,J2,3,Pin_3*%
%TO.N,PB3*%
X171750000Y-97400000D03*
%TO.P,J2,4,Pin_4*%
%TO.N,PB4*%
X171750000Y-99940000D03*
%TO.P,J2,5,Pin_5*%
%TO.N,PB5*%
X171750000Y-102480000D03*
%TO.P,J2,6,Pin_6*%
%TO.N,I2C1_SCLK*%
X171750000Y-105020000D03*
%TO.P,J2,7,Pin_7*%
%TO.N,I2C1_SDA*%
X171750000Y-107560000D03*
%TO.P,J2,8,Pin_8*%
%TO.N,PB11*%
X171750000Y-110100000D03*
%TD*%
D11*
%TO.P,H1,*%
%TO.N,*%
X168125000Y-74000000D03*
X168674175Y-72674175D03*
X168674175Y-75325825D03*
X170000000Y-72125000D03*
D12*
X170000000Y-74000000D03*
D11*
X170000000Y-75875000D03*
X171325825Y-72674175D03*
X171325825Y-75325825D03*
X171875000Y-74000000D03*
%TD*%
D10*
%TO.P,BOOT0,4*%
%TO.N,unconnected-(BOOT1-Pad4)*%
X125250000Y-85650000D03*
%TO.P,BOOT0,5*%
%TO.N,unconnected-(BOOT1-Pad5)*%
X125250000Y-79350000D03*
%TD*%
D17*
%TO.N,PA15*%
X168500000Y-93750000D03*
%TO.N,PB3*%
X168500000Y-96250000D03*
%TO.N,PB4*%
X168500000Y-98750000D03*
%TO.N,PB5*%
X168500000Y-101250000D03*
%TD*%
M02*
