M48
; DRILL file {KiCad 7.0.8} date Sun Nov 19 03:45:18 2023
; FORMAT={-:-/ absolute / inch / decimal}
; #@! TF.CreationDate,2023-11-19T03:45:18+01:00
; #@! TF.GenerationSoftware,Kicad,Pcbnew,7.0.8
; #@! TF.FileFunction,Plated,1,2,PTH
FMAT,2
INCH
; #@! TA.AperFunction,Plated,PTH,ViaDrill
T1C0.0157
; #@! TA.AperFunction,Plated,PTH,ComponentDrill
T2C0.0157
; #@! TA.AperFunction,Plated,PTH,ComponentDrill
T3C0.0197
; #@! TA.AperFunction,Plated,PTH,ComponentDrill
T4C0.0315
; #@! TA.AperFunction,Plated,PTH,ComponentDrill
T5C0.0394
; #@! TA.AperFunction,Plated,PTH,ComponentDrill
T6C0.0866
; #@! TA.AperFunction,Plated,PTH,ComponentDrill
T7C0.0984
%
G90
G05
T1
X5.1083Y-4.1732
X5.1083Y-4.2717
X5.1083Y-4.3701
X5.1181Y-3.6713
X5.1181Y-3.7697
X5.1181Y-3.8681
X5.1969Y-3.1299
X5.2756Y-4.0354
X5.3248Y-4.0354
X5.3386Y-3.5039
X5.374Y-4.0354
X5.3839Y-3.5531
X5.4232Y-4.0354
X5.5709Y-3.3795
X5.5709Y-3.4189
X5.5709Y-3.4583
X5.6102Y-3.3795
X5.6102Y-3.4189
X5.6102Y-3.4583
X5.6102Y-3.6319
X5.6102Y-3.7106
X5.6299Y-3.7697
X5.6496Y-3.3795
X5.6496Y-3.4189
X5.6496Y-3.4583
X5.6791Y-2.9626
X5.7776Y-3.4547
X5.7972Y-3.7598
X5.8465Y-2.9626
X5.8661Y-3.7598
X5.8661Y-3.8681
X5.876Y-3.5433
X5.9252Y-3.7598
X5.9252Y-3.8681
X5.935Y-3.1988
X5.9547Y-3.5827
X5.9744Y-3.5039
X6.0433Y-4.0354
X6.1122Y-4.0354
X6.1811Y-3.1988
X6.2008Y-3.7205
X6.4272Y-3.1398
X6.4764Y-3.1398
X6.5256Y-3.1398
X6.5748Y-3.1398
X6.5748Y-3.4252
X6.5748Y-3.4744
X6.5748Y-3.5236
X6.5748Y-3.5728
T2
X4.9744Y-4.5669
X4.9934Y-4.521
X4.9934Y-4.6129
X5.0394Y-4.502
X5.0394Y-4.6319
X5.0853Y-4.521
X5.0853Y-4.6129
X5.1043Y-4.5669
T3
X4.9656Y-2.9134
X4.9872Y-2.8612
X4.9872Y-2.9656
X5.0394Y-2.8396
X5.0394Y-2.9872
X5.0916Y-2.8612
X5.0916Y-2.9656
X5.1132Y-2.9134
X6.6191Y-2.9134
X6.6191Y-4.5669
X6.6407Y-2.8612
X6.6407Y-2.9656
X6.6407Y-4.5147
X6.6407Y-4.6191
X6.6929Y-2.8396
X6.6929Y-2.9872
X6.6929Y-4.4931
X6.6929Y-4.6407
X6.7451Y-2.8612
X6.7451Y-2.9656
X6.7451Y-4.5147
X6.7451Y-4.6191
X6.7667Y-2.9134
X6.7667Y-4.5669
T4
X4.9311Y-3.124
X4.9311Y-3.372
X6.8012Y-3.124
X6.8012Y-3.372
T5
X4.9803Y-3.622
X4.9803Y-3.722
X4.9803Y-3.822
X4.9803Y-3.922
X4.9803Y-4.022
X4.9803Y-4.122
X4.9803Y-4.222
X4.9803Y-4.322
X6.752Y-3.622
X6.752Y-3.722
X6.752Y-3.822
X6.752Y-3.922
X6.752Y-4.022
X6.752Y-4.122
X6.752Y-4.222
X6.752Y-4.322
T6
X5.0394Y-4.5669
T7
X5.0394Y-2.9134
X6.6929Y-2.9134
X6.6929Y-4.5669
T0
M30
