M48
; DRILL file {KiCad 7.0.8} date Mon Nov 13 16:42:22 2023
; FORMAT={-:-/ absolute / inch / decimal}
; #@! TF.CreationDate,2023-11-13T16:42:22+01:00
; #@! TF.GenerationSoftware,Kicad,Pcbnew,7.0.8
; #@! TF.FileFunction,Plated,1,2,PTH
FMAT,2
INCH
; #@! TA.AperFunction,Plated,PTH,ViaDrill
T1C0.0157
; #@! TA.AperFunction,Plated,PTH,ComponentDrill
T2C0.0157
; #@! TA.AperFunction,Plated,PTH,ComponentDrill
T3C0.0197
; #@! TA.AperFunction,Plated,PTH,ComponentDrill
T4C0.0315
; #@! TA.AperFunction,Plated,PTH,ComponentDrill
T5C0.0394
; #@! TA.AperFunction,Plated,PTH,ComponentDrill
T6C0.0866
; #@! TA.AperFunction,Plated,PTH,ComponentDrill
T7C0.0984
%
G90
G05
T1
X6.6339Y-3.6909
X6.6339Y-3.7894
X6.6339Y-3.8878
X6.6339Y-3.9862
T2
X4.9744Y-4.5669
X4.9934Y-4.521
X4.9934Y-4.6129
X5.0394Y-4.502
X5.0394Y-4.6319
X5.0853Y-4.521
X5.0853Y-4.6129
X5.1043Y-4.5669
T3
X4.9656Y-2.9134
X4.9872Y-2.8612
X4.9872Y-2.9656
X5.0394Y-2.8396
X5.0394Y-2.9872
X5.0916Y-2.8612
X5.0916Y-2.9656
X5.1132Y-2.9134
X6.6191Y-2.9134
X6.6191Y-4.5669
X6.6407Y-2.8612
X6.6407Y-2.9656
X6.6407Y-4.5147
X6.6407Y-4.6191
X6.6929Y-2.8396
X6.6929Y-2.9872
X6.6929Y-4.4931
X6.6929Y-4.6407
X6.7451Y-2.8612
X6.7451Y-2.9656
X6.7451Y-4.5147
X6.7451Y-4.6191
X6.7667Y-2.9134
X6.7667Y-4.5669
T4
X4.9311Y-3.124
X4.9311Y-3.372
X6.8012Y-3.124
X6.8012Y-3.372
T5
X4.9764Y-3.6346
X4.9764Y-3.7346
X4.9764Y-3.8346
X4.9764Y-3.9346
X4.9764Y-4.0346
X4.9764Y-4.1346
X4.9764Y-4.2346
X4.9764Y-4.3346
X6.7618Y-3.6346
X6.7618Y-3.7346
X6.7618Y-3.8346
X6.7618Y-3.9346
X6.7618Y-4.0346
X6.7618Y-4.1346
X6.7618Y-4.2346
X6.7618Y-4.3346
T6
X5.0394Y-4.5669
T7
X5.0394Y-2.9134
X6.6929Y-2.9134
X6.6929Y-4.5669
T0
M30
