%TF.GenerationSoftware,KiCad,Pcbnew,7.0.8*%
%TF.CreationDate,2023-11-13T16:42:22+01:00*%
%TF.ProjectId,ORBIT,4f524249-542e-46b6-9963-61645f706362,rev?*%
%TF.SameCoordinates,Original*%
%TF.FileFunction,Copper,L1,Top*%
%TF.FilePolarity,Positive*%
%FSLAX46Y46*%
G04 Gerber Fmt 4.6, Leading zero omitted, Abs format (unit mm)*
G04 Created by KiCad (PCBNEW 7.0.8) date 2023-11-13 16:42:22*
%MOMM*%
%LPD*%
G01*
G04 APERTURE LIST*
G04 Aperture macros list*
%AMRoundRect*
0 Rectangle with rounded corners*
0 $1 Rounding radius*
0 $2 $3 $4 $5 $6 $7 $8 $9 X,Y pos of 4 corners*
0 Add a 4 corners polygon primitive as box body*
4,1,4,$2,$3,$4,$5,$6,$7,$8,$9,$2,$3,0*
0 Add four circle primitives for the rounded corners*
1,1,$1+$1,$2,$3*
1,1,$1+$1,$4,$5*
1,1,$1+$1,$6,$7*
1,1,$1+$1,$8,$9*
0 Add four rect primitives between the rounded corners*
20,1,$1+$1,$2,$3,$4,$5,0*
20,1,$1+$1,$4,$5,$6,$7,0*
20,1,$1+$1,$6,$7,$8,$9,0*
20,1,$1+$1,$8,$9,$2,$3,0*%
G04 Aperture macros list end*
%TA.AperFunction,SMDPad,CuDef*%
%ADD10RoundRect,0.200000X0.200000X0.275000X-0.200000X0.275000X-0.200000X-0.275000X0.200000X-0.275000X0*%
%TD*%
%TA.AperFunction,SMDPad,CuDef*%
%ADD11R,2.500000X0.900000*%
%TD*%
%TA.AperFunction,ComponentPad*%
%ADD12C,1.400000*%
%TD*%
%TA.AperFunction,SMDPad,CuDef*%
%ADD13RoundRect,0.225000X0.225000X0.250000X-0.225000X0.250000X-0.225000X-0.250000X0.225000X-0.250000X0*%
%TD*%
%TA.AperFunction,SMDPad,CuDef*%
%ADD14RoundRect,0.225000X-0.250000X0.225000X-0.250000X-0.225000X0.250000X-0.225000X0.250000X0.225000X0*%
%TD*%
%TA.AperFunction,SMDPad,CuDef*%
%ADD15RoundRect,0.225000X-0.225000X-0.250000X0.225000X-0.250000X0.225000X0.250000X-0.225000X0.250000X0*%
%TD*%
%TA.AperFunction,SMDPad,CuDef*%
%ADD16R,2.800000X1.000000*%
%TD*%
%TA.AperFunction,SMDPad,CuDef*%
%ADD17RoundRect,0.218750X-0.256250X0.218750X-0.256250X-0.218750X0.256250X-0.218750X0.256250X0.218750X0*%
%TD*%
%TA.AperFunction,SMDPad,CuDef*%
%ADD18RoundRect,0.075000X-0.662500X-0.075000X0.662500X-0.075000X0.662500X0.075000X-0.662500X0.075000X0*%
%TD*%
%TA.AperFunction,SMDPad,CuDef*%
%ADD19RoundRect,0.075000X-0.075000X-0.662500X0.075000X-0.662500X0.075000X0.662500X-0.075000X0.662500X0*%
%TD*%
%TA.AperFunction,ComponentPad*%
%ADD20C,0.800000*%
%TD*%
%TA.AperFunction,ComponentPad*%
%ADD21C,5.000000*%
%TD*%
%TA.AperFunction,SMDPad,CuDef*%
%ADD22RoundRect,0.218750X0.218750X0.256250X-0.218750X0.256250X-0.218750X-0.256250X0.218750X-0.256250X0*%
%TD*%
%TA.AperFunction,SMDPad,CuDef*%
%ADD23RoundRect,0.225000X0.250000X-0.225000X0.250000X0.225000X-0.250000X0.225000X-0.250000X-0.225000X0*%
%TD*%
%TA.AperFunction,SMDPad,CuDef*%
%ADD24R,1.820000X1.200000*%
%TD*%
%TA.AperFunction,SMDPad,CuDef*%
%ADD25RoundRect,0.200000X-0.200000X-0.275000X0.200000X-0.275000X0.200000X0.275000X-0.200000X0.275000X0*%
%TD*%
%TA.AperFunction,SMDPad,CuDef*%
%ADD26RoundRect,0.200000X0.275000X-0.200000X0.275000X0.200000X-0.275000X0.200000X-0.275000X-0.200000X0*%
%TD*%
%TA.AperFunction,SMDPad,CuDef*%
%ADD27R,2.400000X2.000000*%
%TD*%
%TA.AperFunction,SMDPad,CuDef*%
%ADD28RoundRect,0.012500X-0.287500X-0.112500X0.287500X-0.112500X0.287500X0.112500X-0.287500X0.112500X0*%
%TD*%
%TA.AperFunction,SMDPad,CuDef*%
%ADD29RoundRect,0.012500X-0.437500X-0.112500X0.437500X-0.112500X0.437500X0.112500X-0.437500X0.112500X0*%
%TD*%
%TA.AperFunction,SMDPad,CuDef*%
%ADD30RoundRect,0.012500X-0.637500X-0.112500X0.637500X-0.112500X0.637500X0.112500X-0.637500X0.112500X0*%
%TD*%
%TA.AperFunction,SMDPad,CuDef*%
%ADD31RoundRect,0.200000X-0.275000X0.200000X-0.275000X-0.200000X0.275000X-0.200000X0.275000X0.200000X0*%
%TD*%
%TA.AperFunction,SMDPad,CuDef*%
%ADD32RoundRect,0.150000X0.150000X-0.512500X0.150000X0.512500X-0.150000X0.512500X-0.150000X-0.512500X0*%
%TD*%
%TA.AperFunction,SMDPad,CuDef*%
%ADD33R,0.500000X2.200000*%
%TD*%
%TA.AperFunction,SMDPad,CuDef*%
%ADD34R,2.000000X2.200000*%
%TD*%
%TA.AperFunction,ComponentPad*%
%ADD35C,0.700000*%
%TD*%
%TA.AperFunction,ComponentPad*%
%ADD36C,4.400000*%
%TD*%
%TA.AperFunction,ComponentPad*%
%ADD37R,1.700000X1.700000*%
%TD*%
%TA.AperFunction,ComponentPad*%
%ADD38O,1.700000X1.700000*%
%TD*%
%TA.AperFunction,SMDPad,CuDef*%
%ADD39R,0.558800X1.981200*%
%TD*%
%TA.AperFunction,SMDPad,CuDef*%
%ADD40RoundRect,0.250000X-0.250000X-2.500000X0.250000X-2.500000X0.250000X2.500000X-0.250000X2.500000X0*%
%TD*%
%TA.AperFunction,SMDPad,CuDef*%
%ADD41RoundRect,0.250000X-0.550000X-1.250000X0.550000X-1.250000X0.550000X1.250000X-0.550000X1.250000X0*%
%TD*%
%TA.AperFunction,SMDPad,CuDef*%
%ADD42R,0.254000X0.900000*%
%TD*%
%TA.AperFunction,SMDPad,CuDef*%
%ADD43R,0.900000X0.254000*%
%TD*%
%TA.AperFunction,SMDPad,CuDef*%
%ADD44R,3.100000X3.100000*%
%TD*%
%TA.AperFunction,ViaPad*%
%ADD45C,0.800000*%
%TD*%
G04 APERTURE END LIST*
D10*
%TO.P,R13,1*%
%TO.N,Net-(U22-~{RST})*%
X140325000Y-89100000D03*
%TO.P,R13,2*%
%TO.N,Net-(U22-VDD)*%
X138675000Y-89100000D03*
%TD*%
D11*
%TO.P,PWR,1*%
%TO.N,Net-(BAT1-Pin_2)*%
X169000000Y-81500000D03*
%TO.P,PWR,2*%
%TO.N,unconnected-(PWR1-Pad2)*%
X169000000Y-83500000D03*
%TO.P,PWR,3*%
%TO.N,+BATT*%
X169000000Y-85500000D03*
D12*
%TO.P,PWR,4*%
%TO.N,unconnected-(PWR1-Pad4)*%
X172750000Y-79350000D03*
%TO.P,PWR,5*%
%TO.N,unconnected-(PWR1-Pad5)*%
X172750000Y-85650000D03*
%TD*%
D13*
%TO.P,U24,1*%
%TO.N,VBUS*%
X140275000Y-87400000D03*
%TO.P,U24,2*%
%TO.N,GND*%
X138725000Y-87400000D03*
%TD*%
D14*
%TO.P,U9,1*%
%TO.N,NRST*%
X142200000Y-112900000D03*
%TO.P,U9,2*%
%TO.N,GND*%
X142200000Y-114450000D03*
%TD*%
D13*
%TO.P,U21,1*%
%TO.N,Net-(U22-VDD)*%
X140275000Y-84000000D03*
%TO.P,U21,2*%
%TO.N,GND*%
X138725000Y-84000000D03*
%TD*%
D15*
%TO.P,U7,1*%
%TO.N,+BATT*%
X158450000Y-84000000D03*
%TO.P,U7,2*%
%TO.N,GND*%
X160000000Y-84000000D03*
%TD*%
%TO.P,U14,1*%
%TO.N,+BATT*%
X158450000Y-85700000D03*
%TO.P,U14,2*%
%TO.N,GND*%
X160000000Y-85700000D03*
%TD*%
D16*
%TO.P,RESET,1,1*%
%TO.N,NRST*%
X132850000Y-112000000D03*
X138650000Y-112000000D03*
%TO.P,RESET,2,2*%
%TO.N,GND*%
X132850000Y-116000000D03*
X138650000Y-116000000D03*
%TD*%
D17*
%TO.P,D3,1,K*%
%TO.N,GND*%
X145600000Y-112887500D03*
%TO.P,D3,2,A*%
%TO.N,Net-(D3-A)*%
X145600000Y-114462500D03*
%TD*%
D18*
%TO.P,U15,1,VDD*%
%TO.N,+3.3V*%
X144837500Y-96750000D03*
%TO.P,U15,2,PC13*%
%TO.N,unconnected-(U15-PC13-Pad2)*%
X144837500Y-97250000D03*
%TO.P,U15,3,PC14*%
%TO.N,unconnected-(U15-PC14-Pad3)*%
X144837500Y-97750000D03*
%TO.P,U15,4,PC15*%
%TO.N,unconnected-(U15-PC15-Pad4)*%
X144837500Y-98250000D03*
%TO.P,U15,5,PF0*%
%TO.N,/HSE_IN*%
X144837500Y-98750000D03*
%TO.P,U15,6,PF1*%
%TO.N,/HSE_OUT*%
X144837500Y-99250000D03*
%TO.P,U15,7,NRST*%
%TO.N,NRST*%
X144837500Y-99750000D03*
%TO.P,U15,8,VSSA*%
%TO.N,GND*%
X144837500Y-100250000D03*
%TO.P,U15,9,VDDA*%
%TO.N,+3.3V*%
X144837500Y-100750000D03*
%TO.P,U15,10,PA0*%
%TO.N,unconnected-(U15-PA0-Pad10)*%
X144837500Y-101250000D03*
%TO.P,U15,11,PA1*%
%TO.N,unconnected-(U15-PA1-Pad11)*%
X144837500Y-101750000D03*
%TO.P,U15,12,PA2*%
%TO.N,PA2*%
X144837500Y-102250000D03*
D19*
%TO.P,U15,13,PA3*%
%TO.N,PA3*%
X146250000Y-103662500D03*
%TO.P,U15,14,PA4*%
%TO.N,PA4*%
X146750000Y-103662500D03*
%TO.P,U15,15,PA5*%
%TO.N,LED1*%
X147250000Y-103662500D03*
%TO.P,U15,16,PA6*%
%TO.N,LED2*%
X147750000Y-103662500D03*
%TO.P,U15,17,PA7*%
%TO.N,unconnected-(U15-PA7-Pad17)*%
X148250000Y-103662500D03*
%TO.P,U15,18,PB0*%
%TO.N,unconnected-(U15-PB0-Pad18)*%
X148750000Y-103662500D03*
%TO.P,U15,19,PB1*%
%TO.N,unconnected-(U15-PB1-Pad19)*%
X149250000Y-103662500D03*
%TO.P,U15,20,PB2*%
%TO.N,unconnected-(U15-PB2-Pad20)*%
X149750000Y-103662500D03*
%TO.P,U15,21,PB10*%
%TO.N,Net-(U15-PB10)*%
X150250000Y-103662500D03*
%TO.P,U15,22,PB11*%
%TO.N,PB11*%
X150750000Y-103662500D03*
%TO.P,U15,23,VSS*%
%TO.N,GND*%
X151250000Y-103662500D03*
%TO.P,U15,24,VDD*%
%TO.N,+3.3V*%
X151750000Y-103662500D03*
D18*
%TO.P,U15,25,PB12*%
%TO.N,unconnected-(U15-PB12-Pad25)*%
X153162500Y-102250000D03*
%TO.P,U15,26,PB13*%
%TO.N,unconnected-(U15-PB13-Pad26)*%
X153162500Y-101750000D03*
%TO.P,U15,27,PB14*%
%TO.N,unconnected-(U15-PB14-Pad27)*%
X153162500Y-101250000D03*
%TO.P,U15,28,PB15*%
%TO.N,unconnected-(U15-PB15-Pad28)*%
X153162500Y-100750000D03*
%TO.P,U15,29,PA8*%
%TO.N,unconnected-(U15-PA8-Pad29)*%
X153162500Y-100250000D03*
%TO.P,U15,30,PA9*%
%TO.N,USART1_TX*%
X153162500Y-99750000D03*
%TO.P,U15,31,PA10*%
%TO.N,USART1_RX*%
X153162500Y-99250000D03*
%TO.P,U15,32,PA11*%
%TO.N,unconnected-(U15-PA11-Pad32)*%
X153162500Y-98750000D03*
%TO.P,U15,33,PA12*%
%TO.N,unconnected-(U15-PA12-Pad33)*%
X153162500Y-98250000D03*
%TO.P,U15,34,PA13*%
%TO.N,SWDIO*%
X153162500Y-97750000D03*
%TO.P,U15,35,PF6*%
%TO.N,unconnected-(U15-PF6-Pad35)*%
X153162500Y-97250000D03*
%TO.P,U15,36,PF7*%
%TO.N,unconnected-(U15-PF7-Pad36)*%
X153162500Y-96750000D03*
D19*
%TO.P,U15,37,PA14*%
%TO.N,SWDCLK*%
X151750000Y-95337500D03*
%TO.P,U15,38,PA15*%
%TO.N,PA15*%
X151250000Y-95337500D03*
%TO.P,U15,39,PB3*%
%TO.N,PB3*%
X150750000Y-95337500D03*
%TO.P,U15,40,PB4*%
%TO.N,PB4*%
X150250000Y-95337500D03*
%TO.P,U15,41,PB5*%
%TO.N,PB5*%
X149750000Y-95337500D03*
%TO.P,U15,42,PB6*%
%TO.N,Net-(U15-PB6)*%
X149250000Y-95337500D03*
%TO.P,U15,43,PB7*%
%TO.N,Net-(U15-PB7)*%
X148750000Y-95337500D03*
%TO.P,U15,44,BOOT0*%
%TO.N,Net-(U15-BOOT0)*%
X148250000Y-95337500D03*
%TO.P,U15,45,PB8*%
%TO.N,unconnected-(U15-PB8-Pad45)*%
X147750000Y-95337500D03*
%TO.P,U15,46,PB9*%
%TO.N,unconnected-(U15-PB9-Pad46)*%
X147250000Y-95337500D03*
%TO.P,U15,47,VSS*%
%TO.N,GND*%
X146750000Y-95337500D03*
%TO.P,U15,48,VDD*%
%TO.N,+3.3V*%
X146250000Y-95337500D03*
%TD*%
D15*
%TO.P,U1,1*%
%TO.N,+3.3V*%
X153450000Y-106000000D03*
%TO.P,U1,2*%
%TO.N,GND*%
X155000000Y-106000000D03*
%TD*%
D14*
%TO.P,U19,1*%
%TO.N,Net-(U15-PB10)*%
X150700000Y-112900000D03*
%TO.P,U19,2*%
%TO.N,GND*%
X150700000Y-114450000D03*
%TD*%
D20*
%TO.P,H4,*%
%TO.N,*%
X168125000Y-116000000D03*
X168674175Y-114674175D03*
X168674175Y-117325825D03*
X170000000Y-114125000D03*
D21*
X170000000Y-116000000D03*
D20*
X170000000Y-117875000D03*
X171325825Y-114674175D03*
X171325825Y-117325825D03*
X171875000Y-116000000D03*
%TD*%
D22*
%TO.P,D1,1,K*%
%TO.N,Net-(D1-K)*%
X153087500Y-84000000D03*
%TO.P,D1,2,A*%
%TO.N,Net-(D1-A)*%
X151512500Y-84000000D03*
%TD*%
D23*
%TO.P,U18,1*%
%TO.N,Net-(R11-Pad2)*%
X154100000Y-114450000D03*
%TO.P,U18,2*%
%TO.N,GND*%
X154100000Y-112900000D03*
%TD*%
D24*
%TO.P,L1,1*%
%TO.N,Net-(U16-L1)*%
X159547000Y-87390000D03*
%TO.P,L1,2*%
%TO.N,Net-(U16-L2)*%
X159547000Y-89110000D03*
%TD*%
D25*
%TO.P,R1,1*%
%TO.N,VBUS*%
X151475000Y-85700000D03*
%TO.P,R1,2*%
%TO.N,Net-(D1-A)*%
X153125000Y-85700000D03*
%TD*%
D26*
%TO.P,R12,1*%
%TO.N,Net-(R11-Pad2)*%
X155800000Y-114500000D03*
%TO.P,R12,2*%
%TO.N,GND*%
X155800000Y-112850000D03*
%TD*%
D15*
%TO.P,U8,1*%
%TO.N,VBUS*%
X158450000Y-82300000D03*
%TO.P,U8,2*%
%TO.N,GND*%
X160000000Y-82300000D03*
%TD*%
D13*
%TO.P,U4,1*%
%TO.N,+3.3V*%
X140275000Y-92550000D03*
%TO.P,U4,2*%
%TO.N,GND*%
X138725000Y-92550000D03*
%TD*%
D27*
%TO.P,U10,1,1*%
%TO.N,/HSE_IN*%
X139500000Y-105600000D03*
%TO.P,U10,2,2*%
%TO.N,/HSE_OUT*%
X139500000Y-101900000D03*
%TD*%
D28*
%TO.P,U16,1,EN*%
%TO.N,+BATT*%
X154800000Y-87750000D03*
%TO.P,U16,2,MODE*%
%TO.N,GND*%
X154800000Y-88250000D03*
%TO.P,U16,3,AGND*%
X154800000Y-88750000D03*
%TO.P,U16,4,FB*%
%TO.N,Net-(U16-FB)*%
X154800000Y-89250000D03*
%TO.P,U16,5,PG*%
%TO.N,Net-(U16-PG)*%
X154800000Y-89750000D03*
D29*
%TO.P,U16,6,VOUT*%
%TO.N,+3.3V*%
X156450000Y-89750000D03*
%TO.P,U16,7,L2*%
%TO.N,Net-(U16-L2)*%
X156450000Y-89250000D03*
D30*
%TO.P,U16,8,GND*%
%TO.N,GND*%
X156250000Y-88750000D03*
D29*
%TO.P,U16,9,L1*%
%TO.N,Net-(U16-L1)*%
X156450000Y-88250000D03*
%TO.P,U16,10,VIN*%
%TO.N,+BATT*%
X156450000Y-87750000D03*
%TD*%
D31*
%TO.P,R11,1*%
%TO.N,Net-(U15-PB10)*%
X152400000Y-112850000D03*
%TO.P,R11,2*%
%TO.N,Net-(R11-Pad2)*%
X152400000Y-114500000D03*
%TD*%
D32*
%TO.P,U6,1,STAT*%
%TO.N,Net-(D1-K)*%
X154850000Y-84757500D03*
%TO.P,U6,2,VSS*%
%TO.N,GND*%
X155800000Y-84757500D03*
%TO.P,U6,3,VBAT*%
%TO.N,+BATT*%
X156750000Y-84757500D03*
%TO.P,U6,4,VDD*%
%TO.N,VBUS*%
X156750000Y-82482500D03*
%TO.P,U6,5,PROG*%
%TO.N,Net-(U6-PROG)*%
X154850000Y-82482500D03*
%TD*%
D13*
%TO.P,U23,1*%
%TO.N,VBUS*%
X140275000Y-85700000D03*
%TO.P,U23,2*%
%TO.N,GND*%
X138725000Y-85700000D03*
%TD*%
D15*
%TO.P,U13,1*%
%TO.N,+3.3V*%
X158450000Y-90800000D03*
%TO.P,U13,2*%
%TO.N,GND*%
X160000000Y-90800000D03*
%TD*%
D20*
%TO.P,H3,*%
%TO.N,*%
X126125000Y-74000000D03*
X126674175Y-72674175D03*
X126674175Y-75325825D03*
X128000000Y-72125000D03*
D21*
X128000000Y-74000000D03*
D20*
X128000000Y-75875000D03*
X129325825Y-72674175D03*
X129325825Y-75325825D03*
X129875000Y-74000000D03*
%TD*%
D33*
%TO.P,USB1,1,VBUS*%
%TO.N,VBUS*%
X150600000Y-77950000D03*
%TO.P,USB1,2,D-*%
%TO.N,/USB_D-*%
X149800000Y-77950000D03*
%TO.P,USB1,3,D+*%
%TO.N,/USB_D+*%
X149000000Y-77950000D03*
%TO.P,USB1,4,ID*%
%TO.N,unconnected-(USB1-ID-Pad4)*%
X148200000Y-77950000D03*
%TO.P,USB1,5,GND*%
%TO.N,GND*%
X147400000Y-77950000D03*
D34*
%TO.P,USB1,6,Shield*%
%TO.N,unconnected-(USB1-Shield-Pad6)*%
X153450000Y-77550000D03*
%TO.P,USB1,7*%
%TO.N,unconnected-(USB1-Pad7)*%
X144550000Y-77550000D03*
%TO.P,USB1,8*%
%TO.N,unconnected-(USB1-Pad8)*%
X144550000Y-72050000D03*
%TO.P,USB1,9*%
%TO.N,unconnected-(USB1-Pad9)*%
X153450000Y-72050000D03*
%TD*%
D35*
%TO.P,H2,*%
%TO.N,*%
X126350000Y-116000000D03*
X126833274Y-114833274D03*
X126833274Y-117166726D03*
X128000000Y-114350000D03*
D36*
X128000000Y-116000000D03*
D35*
X128000000Y-117650000D03*
X129166726Y-114833274D03*
X129166726Y-117166726D03*
X129650000Y-116000000D03*
%TD*%
D16*
%TO.P,USER,1,1*%
%TO.N,+3.3V*%
X159100000Y-112000000D03*
X164900000Y-112000000D03*
%TO.P,USER,2,2*%
%TO.N,Net-(R11-Pad2)*%
X159100000Y-116000000D03*
X164900000Y-116000000D03*
%TD*%
D31*
%TO.P,R5,1*%
%TO.N,LED1*%
X143900000Y-112850000D03*
%TO.P,R5,2*%
%TO.N,Net-(D3-A)*%
X143900000Y-114500000D03*
%TD*%
D25*
%TO.P,R9,1*%
%TO.N,Net-(U15-PB7)*%
X158853000Y-106000000D03*
%TO.P,R9,2*%
%TO.N,+3.3V*%
X160503000Y-106000000D03*
%TD*%
D37*
%TO.P,J1,1,Pin_1*%
%TO.N,GND*%
X126400000Y-92320000D03*
D38*
%TO.P,J1,2,Pin_2*%
%TO.N,SWDCLK*%
X126400000Y-94860000D03*
%TO.P,J1,3,Pin_3*%
%TO.N,NRST*%
X126400000Y-97400000D03*
%TO.P,J1,4,Pin_4*%
%TO.N,PA2*%
X126400000Y-99940000D03*
%TO.P,J1,5,Pin_5*%
%TO.N,SWDIO*%
X126400000Y-102480000D03*
%TO.P,J1,6,Pin_6*%
%TO.N,PA3*%
X126400000Y-105020000D03*
%TO.P,J1,7,Pin_7*%
%TO.N,PA4*%
X126400000Y-107560000D03*
%TO.P,J1,8,Pin_8*%
%TO.N,+3.3V*%
X126400000Y-110100000D03*
%TD*%
D10*
%TO.P,R2,1*%
%TO.N,GND*%
X140325000Y-90850000D03*
%TO.P,R2,2*%
%TO.N,Net-(BOOT1-Pad1)*%
X138675000Y-90850000D03*
%TD*%
D39*
%TO.P,U17,1,A0*%
%TO.N,+3.3V*%
X160522600Y-95536200D03*
%TO.P,U17,2,A1*%
X159252600Y-95536200D03*
%TO.P,U17,3,A2*%
%TO.N,GND*%
X157982600Y-95536200D03*
%TO.P,U17,4,GND*%
X156712600Y-95536200D03*
%TO.P,U17,5,SDA*%
%TO.N,Net-(U15-PB7)*%
X156712600Y-100463800D03*
%TO.P,U17,6,SCL*%
%TO.N,Net-(U15-PB6)*%
X157982600Y-100463800D03*
%TO.P,U17,7,WP*%
%TO.N,GND*%
X159252600Y-100463800D03*
%TO.P,U17,8,VCC*%
%TO.N,+3.3V*%
X160522600Y-100463800D03*
%TD*%
D13*
%TO.P,U12,1*%
%TO.N,/HSE_OUT*%
X140275000Y-97700000D03*
%TO.P,U12,2*%
%TO.N,GND*%
X138725000Y-97700000D03*
%TD*%
D31*
%TO.P,R4,1*%
%TO.N,LED2*%
X147300000Y-112850000D03*
%TO.P,R4,2*%
%TO.N,Net-(D2-A)*%
X147300000Y-114500000D03*
%TD*%
D25*
%TO.P,R7,1*%
%TO.N,+3.3V*%
X151440000Y-89100000D03*
%TO.P,R7,2*%
%TO.N,Net-(U16-FB)*%
X153090000Y-89100000D03*
%TD*%
D40*
%TO.P,BAT,1,Pin_1*%
%TO.N,GND*%
X159750000Y-76000000D03*
%TO.P,BAT,2,Pin_2*%
%TO.N,Net-(BAT1-Pin_2)*%
X161750000Y-76000000D03*
D41*
%TO.P,BAT,MP*%
%TO.N,N/C*%
X157350000Y-73750000D03*
X164150000Y-73750000D03*
%TD*%
D13*
%TO.P,U2,1*%
%TO.N,+3.3V*%
X140275000Y-99400000D03*
%TO.P,U2,2*%
%TO.N,GND*%
X138725000Y-99400000D03*
%TD*%
D10*
%TO.P,R10,1*%
%TO.N,Net-(U16-FB)*%
X153090000Y-90800000D03*
%TO.P,R10,2*%
%TO.N,GND*%
X151440000Y-90800000D03*
%TD*%
%TO.P,R6,1*%
%TO.N,+3.3V*%
X153090000Y-87400000D03*
%TO.P,R6,2*%
%TO.N,Net-(U16-PG)*%
X151440000Y-87400000D03*
%TD*%
D37*
%TO.P,J2,1,Pin_1*%
%TO.N,GND*%
X171750000Y-92320000D03*
D38*
%TO.P,J2,2,Pin_2*%
%TO.N,PA15*%
X171750000Y-94860000D03*
%TO.P,J2,3,Pin_3*%
%TO.N,PB3*%
X171750000Y-97400000D03*
%TO.P,J2,4,Pin_4*%
%TO.N,PB4*%
X171750000Y-99940000D03*
%TO.P,J2,5,Pin_5*%
%TO.N,PB5*%
X171750000Y-102480000D03*
%TO.P,J2,6,Pin_6*%
%TO.N,I2C1_SCLK*%
X171750000Y-105020000D03*
%TO.P,J2,7,Pin_7*%
%TO.N,I2C1_SDA*%
X171750000Y-107560000D03*
%TO.P,J2,8,Pin_8*%
%TO.N,PB11*%
X171750000Y-110100000D03*
%TD*%
D15*
%TO.P,U5,1*%
%TO.N,+3.3V*%
X153450000Y-104250000D03*
%TO.P,U5,2*%
%TO.N,GND*%
X155000000Y-104250000D03*
%TD*%
D42*
%TO.P,U22,1,DCD*%
%TO.N,unconnected-(U22-DCD-Pad1)*%
X146750000Y-82160000D03*
%TO.P,U22,2,RI*%
%TO.N,unconnected-(U22-RI-Pad2)*%
X146250000Y-82160000D03*
%TO.P,U22,3,GND*%
%TO.N,GND*%
X145750000Y-82160000D03*
%TO.P,U22,4,D+*%
%TO.N,/USB_D+*%
X145250000Y-82160000D03*
%TO.P,U22,5,D-*%
%TO.N,/USB_D-*%
X144750000Y-82160000D03*
%TO.P,U22,6,VDD*%
%TO.N,Net-(U22-VDD)*%
X144250000Y-82160000D03*
%TO.P,U22,7,REGIN*%
%TO.N,VBUS*%
X143750000Y-82160000D03*
D43*
%TO.P,U22,8,VBUS*%
X142660000Y-83250000D03*
%TO.P,U22,9,~{RST}*%
%TO.N,Net-(U22-~{RST})*%
X142660000Y-83750000D03*
%TO.P,U22,10,NC*%
%TO.N,unconnected-(U22-NC-Pad10)*%
X142660000Y-84250000D03*
%TO.P,U22,11,~{SUSPEND}*%
%TO.N,unconnected-(U22-~{SUSPEND}-Pad11)*%
X142660000Y-84750000D03*
%TO.P,U22,12,SUSPEND*%
%TO.N,unconnected-(U22-SUSPEND-Pad12)*%
X142660000Y-85250000D03*
%TO.P,U22,13,NC@1*%
%TO.N,unconnected-(U22-NC@1-Pad13)*%
X142660000Y-85750000D03*
%TO.P,U22,14,NC@2*%
%TO.N,unconnected-(U22-NC@2-Pad14)*%
X142660000Y-86250000D03*
D42*
%TO.P,U22,15,NC@3*%
%TO.N,unconnected-(U22-NC@3-Pad15)*%
X143750000Y-87340000D03*
%TO.P,U22,16,NC@4*%
%TO.N,unconnected-(U22-NC@4-Pad16)*%
X144250000Y-87340000D03*
%TO.P,U22,17,NC@5*%
%TO.N,unconnected-(U22-NC@5-Pad17)*%
X144750000Y-87340000D03*
%TO.P,U22,18,NC/VPP*%
%TO.N,unconnected-(U22-NC{slash}VPP-Pad18)*%
X145250000Y-87340000D03*
%TO.P,U22,19,NC@6*%
%TO.N,unconnected-(U22-NC@6-Pad19)*%
X145750000Y-87340000D03*
%TO.P,U22,20,NC@7*%
%TO.N,unconnected-(U22-NC@7-Pad20)*%
X146250000Y-87340000D03*
%TO.P,U22,21,NC@8*%
%TO.N,unconnected-(U22-NC@8-Pad21)*%
X146750000Y-87340000D03*
D43*
%TO.P,U22,22,NC@9*%
%TO.N,unconnected-(U22-NC@9-Pad22)*%
X147840000Y-86250000D03*
%TO.P,U22,23,CTS*%
%TO.N,unconnected-(U22-CTS-Pad23)*%
X147840000Y-85750000D03*
%TO.P,U22,24,RTS*%
%TO.N,unconnected-(U22-RTS-Pad24)*%
X147840000Y-85250000D03*
%TO.P,U22,25,RXD*%
%TO.N,USART1_TX*%
X147840000Y-84750000D03*
%TO.P,U22,26,TXD*%
%TO.N,USART1_RX*%
X147840000Y-84250000D03*
%TO.P,U22,27,DSR*%
%TO.N,unconnected-(U22-DSR-Pad27)*%
X147840000Y-83750000D03*
%TO.P,U22,28,DTR*%
%TO.N,unconnected-(U22-DTR-Pad28)*%
X147840000Y-83250000D03*
D44*
%TO.P,U22,29,GND@1*%
%TO.N,unconnected-(U22-GND@1-Pad29)*%
X145250000Y-84750000D03*
%TD*%
D17*
%TO.P,D2,1,K*%
%TO.N,GND*%
X149000000Y-112887500D03*
%TO.P,D2,2,A*%
%TO.N,Net-(D2-A)*%
X149000000Y-114462500D03*
%TD*%
D20*
%TO.P,H1,*%
%TO.N,*%
X168125000Y-74000000D03*
X168674175Y-72674175D03*
X168674175Y-75325825D03*
X170000000Y-72125000D03*
D21*
X170000000Y-74000000D03*
D20*
X170000000Y-75875000D03*
X171325825Y-72674175D03*
X171325825Y-75325825D03*
X171875000Y-74000000D03*
%TD*%
D13*
%TO.P,U3,1*%
%TO.N,+3.3V*%
X140275000Y-94250000D03*
%TO.P,U3,2*%
%TO.N,GND*%
X138725000Y-94250000D03*
%TD*%
%TO.P,U11,1*%
%TO.N,/HSE_IN*%
X140275000Y-96000000D03*
%TO.P,U11,2*%
%TO.N,GND*%
X138725000Y-96000000D03*
%TD*%
D25*
%TO.P,R8,1*%
%TO.N,Net-(U15-PB6)*%
X158853000Y-104250000D03*
%TO.P,R8,2*%
%TO.N,+3.3V*%
X160503000Y-104250000D03*
%TD*%
%TO.P,R3,1*%
%TO.N,GND*%
X151475000Y-82300000D03*
%TO.P,R3,2*%
%TO.N,Net-(U6-PROG)*%
X153125000Y-82300000D03*
%TD*%
D13*
%TO.P,U20,1*%
%TO.N,Net-(U22-VDD)*%
X140275000Y-82300000D03*
%TO.P,U20,2*%
%TO.N,GND*%
X138725000Y-82300000D03*
%TD*%
D11*
%TO.P,BOOT0,1*%
%TO.N,Net-(BOOT1-Pad1)*%
X129000000Y-83500000D03*
%TO.P,BOOT0,2*%
%TO.N,+3.3V*%
X129000000Y-81500000D03*
%TO.P,BOOT0,3*%
%TO.N,Net-(U15-BOOT0)*%
X129000000Y-79500000D03*
D12*
%TO.P,BOOT0,4*%
%TO.N,unconnected-(BOOT1-Pad4)*%
X125250000Y-85650000D03*
%TO.P,BOOT0,5*%
%TO.N,unconnected-(BOOT1-Pad5)*%
X125250000Y-79350000D03*
%TD*%
D45*
%TO.N,PA15*%
X168500000Y-93750000D03*
%TO.N,PB3*%
X168500000Y-96250000D03*
%TO.N,PB4*%
X168500000Y-98750000D03*
%TO.N,PB5*%
X168500000Y-101250000D03*
%TD*%
M02*
